<?xml version="1.0" encoding="UTF-8" standalone="no"?>
<svg
   xmlns:dc="http://purl.org/dc/elements/1.1/"
   xmlns:cc="http://creativecommons.org/ns#"
   xmlns:rdf="http://www.w3.org/1999/02/22-rdf-syntax-ns#"
   xmlns:svg="http://www.w3.org/2000/svg"
   xmlns="http://www.w3.org/2000/svg"
   xmlns:sodipodi="http://sodipodi.sourceforge.net/DTD/sodipodi-0.dtd"
   xmlns:inkscape="http://www.inkscape.org/namespaces/inkscape"
   width="24"
   height="24"
   viewBox="0 0 24 24"
   version="1.1"
   id="svg5055"
   sodipodi:docname="face-2.svg"
   inkscape:version="0.92.1 r15371">
  <metadata
     id="metadata5061">
    <rdf:RDF>
      <cc:Work
         rdf:about="">
        <dc:format>image/svg+xml</dc:format>
        <dc:type
           rdf:resource="http://purl.org/dc/dcmitype/StillImage" />
      </cc:Work>
    </rdf:RDF>
  </metadata>
  <defs
     id="defs5059" />
  <sodipodi:namedview
     pagecolor="#ffffff"
     bordercolor="#666666"
     borderopacity="1"
     objecttolerance="10"
     gridtolerance="10"
     guidetolerance="10"
     inkscape:pageopacity="0"
     inkscape:pageshadow="2"
     inkscape:window-width="902"
     inkscape:window-height="578"
     id="namedview5057"
     showgrid="false"
     inkscape:zoom="9.8333333"
     inkscape:cx="14.888725"
     inkscape:cy="11.546716"
     inkscape:window-x="0"
     inkscape:window-y="0"
     inkscape:window-maximized="0"
     inkscape:current-layer="svg5055" />
  <ellipse
     style="fill:#ffa423;fill-opacity:1;fill-rule:nonzero;stroke-width:1.15920234"
     id="path5606"
     cx="11.847457"
     cy="12.050847"
     rx="10.525424"
     ry="10.932203" />
  <path
     d="M12 2c5.514 0 10 4.486 10 10s-4.486 10-10 10-10-4.486-10-10 4.486-10 10-10zm0-2c-6.627 0-12 5.373-12 12s5.373 12 12 12 12-5.373 12-12-5.373-12-12-12zm.001 14c-2.332 0-4.145 1.636-5.093 2.797l.471.58c1.286-.819 2.732-1.308 4.622-1.308s3.336.489 4.622 1.308l.471-.58c-.948-1.161-2.761-2.797-5.093-2.797zm-3.501-6c-.828 0-1.5.671-1.5 1.5s.672 1.5 1.5 1.5 1.5-.671 1.5-1.5-.672-1.5-1.5-1.5zm7 0c-.828 0-1.5.671-1.5 1.5s.672 1.5 1.5 1.5 1.5-.671 1.5-1.5-.672-1.5-1.5-1.5z"
     id="path5053" />
</svg>
