<?xml version="1.0" encoding="UTF-8" standalone="no"?>
<svg
   xmlns:dc="http://purl.org/dc/elements/1.1/"
   xmlns:cc="http://creativecommons.org/ns#"
   xmlns:rdf="http://www.w3.org/1999/02/22-rdf-syntax-ns#"
   xmlns:svg="http://www.w3.org/2000/svg"
   xmlns="http://www.w3.org/2000/svg"
   xmlns:sodipodi="http://sodipodi.sourceforge.net/DTD/sodipodi-0.dtd"
   xmlns:inkscape="http://www.inkscape.org/namespaces/inkscape"
   width="24"
   height="24"
   viewBox="0 0 24 24"
   version="1.1"
   id="svg6720"
   sodipodi:docname="logo-white.svg"
   inkscape:version="0.92.1 r15371">
  <metadata
     id="metadata6726">
    <rdf:RDF>
      <cc:Work
         rdf:about="">
        <dc:format>image/svg+xml</dc:format>
        <dc:type
           rdf:resource="http://purl.org/dc/dcmitype/StillImage" />
        <dc:title></dc:title>
      </cc:Work>
    </rdf:RDF>
  </metadata>
  <defs
     id="defs6724" />
  <sodipodi:namedview
     pagecolor="#ffffff"
     bordercolor="#666666"
     borderopacity="1"
     objecttolerance="10"
     gridtolerance="10"
     guidetolerance="10"
     inkscape:pageopacity="0"
     inkscape:pageshadow="2"
     inkscape:window-width="2338"
     inkscape:window-height="1509"
     id="namedview6722"
     showgrid="false"
     inkscape:zoom="13.906433"
     inkscape:cx="-0.78223274"
     inkscape:cy="9.7362829"
     inkscape:window-x="0"
     inkscape:window-y="0"
     inkscape:window-maximized="0"
     inkscape:current-layer="svg6720" />
  <path
     d="M12 2c5.514 0 10 4.486 10 10s-4.486 10-10 10-10-4.486-10-10 4.486-10 10-10zm0-2c-6.627 0-12 5.373-12 12s5.373 12 12 12 12-5.373 12-12-5.373-12-12-12zm6 14h-12c.331 1.465 2.827 4 6.001 4 3.134 0 5.666-2.521 5.999-4zm0-3.998l-.755.506s-.503-.948-1.746-.948c-1.207 0-1.745.948-1.745.948l-.754-.506c.281-.748 1.205-2.002 2.499-2.002 1.295 0 2.218 1.254 2.501 2.002zm-7 0l-.755.506s-.503-.948-1.746-.948c-1.207 0-1.745.948-1.745.948l-.754-.506c.281-.748 1.205-2.002 2.499-2.002 1.295 0 2.218 1.254 2.501 2.002z"
     id="path6718"
     style="fill:#ffffff;fill-opacity:1" />
</svg>
