<svg xmlns="http://www.w3.org/2000/svg" width="420" height="237"><path d="M175.629 132.972h-18.09c-2.986 0-5.428-2.442-5.428-5.427v-18.09c0-2.985 2.442-5.427 5.427-5.427h18.09c2.985 0 5.428 2.442 5.428 5.427v18.09c0 2.985-2.443 5.427-5.427 5.427zm48.843-5.427v-18.09c0-2.985-2.442-5.427-5.427-5.427h-18.09c-2.985 0-5.427 2.442-5.427 5.427v18.09c0 2.985 2.442 5.427 5.427 5.427h18.09c2.985 0 5.427-2.442 5.427-5.427zm43.417 0v-18.09c0-2.985-2.442-5.427-5.427-5.427h-18.09c-2.985 0-5.428 2.442-5.428 5.427v18.09c0 2.985 2.443 5.427 5.427 5.427h18.09c2.986 0 5.428-2.442 5.428-5.427zm-43.417 43.417v-18.09c0-2.985-2.442-5.428-5.427-5.428h-18.09c-2.985 0-5.427 2.443-5.427 5.427v18.09c0 2.986 2.442 5.428 5.427 5.428h18.09c2.985 0 5.427-2.442 5.427-5.427zm-43.416 0v-18.09c0-2.985-2.443-5.428-5.427-5.428h-18.09c-2.986 0-5.428 2.443-5.428 5.427v18.09c0 2.986 2.442 5.428 5.427 5.428h18.09c2.985 0 5.428-2.442 5.428-5.427zm86.833 0v-18.09c0-2.985-2.442-5.428-5.427-5.428h-18.09c-2.985 0-5.428 2.443-5.428 5.427v18.09c0 2.986 2.443 5.428 5.427 5.428h18.09c2.986 0 5.428-2.442 5.428-5.427zm43.416-117.587V212.57c0 11.985-9.723 21.709-21.708 21.709H130.403c-11.985 0-21.708-9.724-21.708-21.709V53.375c0-11.985 9.723-21.708 21.708-21.708h21.708V8.149c0-2.984 2.442-5.427 5.427-5.427h18.09c2.985 0 5.428 2.443 5.428 5.427v23.518h57.888V8.149c0-2.984 2.443-5.427 5.427-5.427h18.09c2.986 0 5.428 2.443 5.428 5.427v23.518h21.708c11.985 0 21.708 9.723 21.708 21.708zm-21.708 156.48V75.084H130.403v134.773a2.722 2.722 0 0 0 2.713 2.713h153.768a2.722 2.722 0 0 0 2.713-2.713z" fill="#5c3566"/></svg>