<svg xmlns="http://www.w3.org/2000/svg" width="4188.062" height="907.087" viewBox="0 0 1108.091 240"><defs><filter id="e" color-interpolation-filters="sRGB"><feFlood flood-opacity=".498" flood-color="#000" result="flood"/><feComposite in="flood" in2="SourceGraphic" operator="in" result="composite1"/><feGaussianBlur in="composite1" stdDeviation=".9" result="blur"/><feOffset dy=".9" result="offset"/><feComposite in="SourceGraphic" in2="offset" result="composite2"/></filter><filter id="d" color-interpolation-filters="sRGB"><feFlood flood-opacity=".498" flood-color="#000" result="flood"/><feComposite in="flood" in2="SourceGraphic" operator="in" result="composite1"/><feGaussianBlur in="composite1" stdDeviation=".9" result="blur"/><feOffset dy=".9" result="offset"/><feComposite in="SourceGraphic" in2="offset" result="composite2"/></filter><filter id="c" color-interpolation-filters="sRGB"><feFlood flood-opacity=".498" flood-color="#000" result="flood"/><feComposite in="flood" in2="SourceGraphic" operator="in" result="composite1"/><feGaussianBlur in="composite1" stdDeviation=".9" result="blur"/><feOffset dy=".9" result="offset"/><feComposite in="SourceGraphic" in2="offset" result="composite2"/></filter><filter id="b" color-interpolation-filters="sRGB"><feFlood flood-opacity=".498" flood-color="#000" result="flood"/><feComposite in="flood" in2="SourceGraphic" operator="in" result="composite1"/><feGaussianBlur in="composite1" stdDeviation=".9" result="blur"/><feOffset dy=".9" result="offset"/><feComposite in="SourceGraphic" in2="offset" result="composite2"/></filter><filter id="a" color-interpolation-filters="sRGB"><feFlood flood-opacity=".498" flood-color="#000" result="flood"/><feComposite in="flood" in2="SourceGraphic" operator="in" result="composite1"/><feGaussianBlur in="composite1" stdDeviation=".9" result="blur"/><feOffset dy=".9" result="offset"/><feComposite in="SourceGraphic" in2="offset" result="composite2"/></filter></defs><g transform="matrix(8.33333 0 0 8.33333 888.091 20)" filter="url(#a)"><circle r="11.085" cy="11.898" cx="11.898" fill="#38e815"/><path d="M12 2c5.514 0 10 4.486 10 10s-4.486 10-10 10S2 17.514 2 12 6.486 2 12 2zm0-2C5.373 0 0 5.373 0 12s5.373 12 12 12 12-5.373 12-12S18.627 0 12 0zm6 14H6c.331 1.465 2.827 4 6.001 4 3.134 0 5.666-2.521 5.999-4zm0-3.998l-.755.506s-.503-.948-1.746-.948c-1.207 0-1.745.948-1.745.948L13 10.002C13.281 9.254 14.205 8 15.499 8c1.295 0 2.218 1.254 2.501 2.002zm-7 0l-.755.506s-.503-.948-1.746-.948c-1.207 0-1.745.948-1.745.948L6 10.002C6.281 9.254 7.205 8 8.499 8 9.794 8 10.717 9.254 11 10.002z"/></g><g transform="matrix(8.33333 0 0 8.33333 20 20)" filter="url(#b)"><ellipse ry="10.983" rx="10.627" cy="11.797" cx="11.644" fill="#ff4c3f"/><path d="M15.877 6.124L12 10 8.123 6.124 9.247 5 12 7.753 14.754 5zM12 2c5.514 0 10 4.486 10 10s-4.486 10-10 10S2 17.514 2 12 6.486 2 12 2zm0-2C5.373 0 0 5.373 0 12s5.373 12 12 12 12-5.373 12-12S18.627 0 12 0zm.001 14c-2.332 0-4.145 1.636-5.093 2.797l.471.58c1.286-.819 2.732-1.308 4.622-1.308 1.89 0 3.336.489 4.622 1.308l.471-.58C16.146 15.636 14.333 14 12.001 14zM8.5 9a1.5 1.5 0 1 0 0 3 1.5 1.5 0 0 0 0-3zm7 0a1.5 1.5 0 1 0 0 3 1.5 1.5 0 0 0 0-3z"/></g><g transform="matrix(8.33333 0 0 8.33333 237.023 20)" filter="url(#c)"><ellipse ry="10.932" rx="10.525" cy="12.051" cx="11.847" fill="#ffa423"/><path d="M12 2c5.514 0 10 4.486 10 10s-4.486 10-10 10S2 17.514 2 12 6.486 2 12 2zm0-2C5.373 0 0 5.373 0 12s5.373 12 12 12 12-5.373 12-12S18.627 0 12 0zm.001 14c-2.332 0-4.145 1.636-5.093 2.797l.471.58c1.286-.819 2.732-1.308 4.622-1.308 1.89 0 3.336.489 4.622 1.308l.471-.58C16.146 15.636 14.333 14 12.001 14zM8.5 8a1.5 1.5 0 1 0 0 3 1.5 1.5 0 0 0 0-3zm7 0a1.5 1.5 0 1 0 0 3 1.5 1.5 0 0 0 0-3z"/></g><g transform="matrix(8.33333 0 0 8.33333 454.046 20)" filter="url(#d)"><ellipse ry="10.576" rx="10.627" cy="11.797" cx="12.254" fill="#ffeb23"/><path d="M12 2c5.514 0 10 4.486 10 10s-4.486 10-10 10S2 17.514 2 12 6.486 2 12 2zm0-2C5.373 0 0 5.373 0 12s5.373 12 12 12 12-5.373 12-12S18.627 0 12 0zm4 17H8v-2h8zM8.5 8a1.5 1.5 0 1 0 0 3 1.5 1.5 0 0 0 0-3zm7 0a1.5 1.5 0 1 0 0 3 1.5 1.5 0 0 0 0-3z"/></g><g transform="matrix(8.33333 0 0 8.33333 671.069 20)" filter="url(#e)"><ellipse ry="11.186" rx="10.932" cy="11.898" cx="11.847" fill="#a5e200"/><path d="M12 2c5.514 0 10 4.486 10 10s-4.486 10-10 10S2 17.514 2 12 6.486 2 12 2zm0-2C5.373 0 0 5.373 0 12s5.373 12 12 12 12-5.373 12-12S18.627 0 12 0zm5.507 13.941c-1.512 1.195-3.174 1.931-5.506 1.931-2.334 0-3.996-.736-5.508-1.931L6 14.434C7.127 16.154 9.2 18 12.001 18c2.8 0 4.872-1.846 5.999-3.566zM8.5 8a1.5 1.5 0 1 0 0 3 1.5 1.5 0 0 0 0-3zm7 0a1.5 1.5 0 1 0 0 3 1.5 1.5 0 0 0 0-3z"/></g></svg>