<svg xmlns="http://www.w3.org/2000/svg" width="420" height="237"><path d="M186.366 232.198l-17.253-5.025c-1.867-.533-2.979-2.534-2.445-4.402L229.276 7.244c.534-1.867 2.535-2.979 4.402-2.445l17.253 5.024c1.868.534 2.98 2.535 2.446 4.402l-62.609 215.527c-.533 1.913-2.49 2.98-4.402 2.446zm-36.995-53.848l12.094-12.895c1.379-1.468 1.245-3.78-.222-5.114l-47.179-41.843 47.179-41.842c1.512-1.334 1.6-3.646.222-5.114l-12.094-12.895c-1.334-1.423-3.602-1.512-5.025-.178l-61.274 57.45a3.55 3.55 0 0 0 0 5.203l61.274 57.406c1.423 1.334 3.646 1.245 5.025-.178zm126.328.178l61.23-57.406a3.55 3.55 0 0 0 0-5.203l-61.23-57.45c-1.423-1.334-3.691-1.29-5.025.178l-12.095 12.895c-1.378 1.468-1.245 3.78.223 5.114l47.178 41.842-47.178 41.843c-1.512 1.334-1.601 3.646-.223 5.114l12.095 12.895c1.378 1.423 3.602 1.512 5.025.178z" fill="#5c3566"/></svg>