<svg xmlns="http://www.w3.org/2000/svg" width="420" height="237"><path d="M306.833 185.801l-53.232-85.618V24.331h9.084c2.997 0 5.45-2.453 5.45-5.45V7.978c0-2.997-2.453-5.45-5.45-5.45H157.309c-2.998 0-5.45 2.453-5.45 5.45V18.88c0 2.998 2.452 5.45 5.45 5.45h9.084v75.853l-53.233 85.618c-13.308 21.393 2.044 49.281 27.298 49.281h139.078c25.299 0 40.606-27.933 27.297-49.28zm-27.297 27.48H140.458c-8.221 0-13.036-9.13-8.766-15.989l53.233-85.617a21.898 21.898 0 0 0 3.27-11.492V24.331h43.604v75.852c0 4.088 1.135 8.04 3.27 11.492l53.233 85.617c4.27 6.859-.5 15.989-8.766 15.989z" fill="#5c3566"/></svg>