<svg xmlns="http://www.w3.org/2000/svg" width="420" height="237"><path d="M310.61 75.381h-43.118V32.263c0-15.855-12.891-28.746-28.746-28.746H109.39c-15.855 0-28.746 12.89-28.746 28.746v71.864c0 15.855 12.89 28.746 28.746 28.746h14.373v23.356c0 3.189 2.605 5.39 5.39 5.39 1.078 0 2.2-.315 3.189-1.078l34.54-19.538v34.989c0 15.855 12.89 28.745 28.745 28.745h43.119l48.912 27.668c.989.719 2.111 1.078 3.19 1.078 2.784 0 5.39-2.2 5.39-5.39v-23.356h14.372c15.855 0 28.746-12.89 28.746-28.745v-71.865c0-15.855-12.89-28.746-28.746-28.746zm-186.847 35.933H109.39c-3.953 0-7.187-3.234-7.187-7.187V32.263c0-3.953 3.234-7.187 7.187-7.187h129.356c3.952 0 7.186 3.234 7.186 7.187v71.864c0 3.953-3.234 7.187-7.186 7.187h-63.151l-4.94 2.784-25.333 14.328v-17.112zm194.034 64.678c0 3.952-3.234 7.186-7.187 7.186h-35.932v17.113l-25.332-14.328-4.94-2.785h-48.779c-3.952 0-7.186-3.234-7.186-7.186v-43.12h50.305c15.855 0 28.746-12.89 28.746-28.745v-7.186h43.118c3.953 0 7.187 3.234 7.187 7.186z" fill="#5c3566"/></svg>